PathFileType	4	(X/Y/Z)	/Users/itak/Documents/Research/Walk-IL/dataset/trc/00399_00012.trc
DataRate	CameraRate	NumFrames	NumMarkers	Units	OrigDataRate	OrigDataStartFrame	OrigNumFrames
100.000000	100.000000	4	53	mm	100.000000	549	732
Frame#	Time	RPSI			LPSI			L3			STRN			T10			C7			CLAV			RBAK			LBAK			LSHO			LUPA			LAEL			LAOL			LWTS			LWPS			LFRA			LIFD			LHPS			LHTS			RSHO			RUPA			RAEL			RAOL			RWTS			RWPS			RFRA			RIFD			RHTS			RHPS			RBHD			LFHD			RFHD			LBHD			LHIP			RHIP			RASI			LASI			LKNE			LTHI			LANK			LTIP			LTOE			LMT1			LMT5			LHEE			RKNE			RTHI			RANK			RTIP			RTOE			RMT1			RMT5			RHEE			
		X1	Y1	Z1	X2	Y2	Z2	X3	Y3	Z3	X4	Y4	Z4	X5	Y5	Z5	X6	Y6	Z6	X7	Y7	Z7	X8	Y8	Z8	X9	Y9	Z9	X10	Y10	Z10	X11	Y11	Z11	X12	Y12	Z12	X13	Y13	Z13	X14	Y14	Z14	X15	Y15	Z15	X16	Y16	Z16	X17	Y17	Z17	X18	Y18	Z18	X19	Y19	Z19	X20	Y20	Z20	X21	Y21	Z21	X22	Y22	Z22	X23	Y23	Z23	X24	Y24	Z24	X25	Y25	Z25	X26	Y26	Z26	X27	Y27	Z27	X28	Y28	Z28	X29	Y29	Z29	X30	Y30	Z30	X31	Y31	Z31	X32	Y32	Z32	X33	Y33	Z33	X34	Y34	Z34	X35	Y35	Z35	X36	Y36	Z36	X37	Y37	Z37	X38	Y38	Z38	X39	Y39	Z39	X40	Y40	Z40	X41	Y41	Z41	X42	Y42	Z42	X43	Y43	Z43	X44	Y44	Z44	X45	Y45	Z45	X46	Y46	Z46	X47	Y47	Z47	X48	Y48	Z48	X49	Y49	Z49	X50	Y50	Z50	X51	Y51	Z51	X52	Y52	Z52	X53	Y53	Z53	

550	5.49	-873.3653564453125	981.5675048828125	31.19179916381836	-742.2603759765625	961.8181762695312	30.28312873840332	-809.2837524414062	1055.716918945312	29.34790420532227	-811.8296508789062	1214.951782226562	267.7980651855469	-804.2618408203125	1159.232788085938	18.86084365844727	-796.336181640625	1408.29248046875	57.23631286621094	-807.7614135742188	1333.624145507812	213.7848968505859	-865.4078979492188	1263.130981445312	12.28153514862061	-694.7728881835938	1372.1533203125	44.77106857299805	-646.2505493164062	1389.365966796875	132.5599212646484	-580.504150390625	1274.102416992188	97.65504455566406	-554.67236328125	1078.340454101562	89.55142211914062	-624.5261840820312	1059.848510742188	43.00924682617188	-578.7664184570312	854.1253051757812	162.3683471679688	-525.8174438476562	849.4026489257812	98.57656860351562	-542.3238525390625	973.95751953125	91.11438751220703	-579.354736328125	675.0713500976562	133.5957946777344	-534.4141235351562	761.663818359375	102.3250961303711	-558.6327514648438	754.9590454101562	160.6652374267578	-953.5067749023438	1395.0810546875	106.6207122802734	-1014.650329589844	1333.79541015625	92.31842041015625	-1097.120361328125	1084.089233398438	120.7236099243164	-1006.301696777344	1055.864135742188	125.1900329589844	-1143.321533203125	959.9879760742188	328.9736022949219	-1193.487060546875	934.6248168945312	281.1310424804688	-1129.348266601562	1038.173828125	161.3931884765625	-1202.378784179688	821.8964233398438	415.0628051757812	-1197.808715820312	889.4721069335938	390.093505859375	-1221.664794921875	866.5735473632812	329.0617370605469	-893.4705200195312	1591.732666015625	99.39417266845703	-736.93505859375	1607.710693359375	218.7995452880859	-857.4993896484375	1613.368041992188	226.6851043701172	-737.7548217773438	1580.512084960938	72.31163787841797	-630.1856079101562	956.4461669921875	122.3173980712891	-989.2604370117188	969.070068359375	113.8572845458984	-937.1343994140625	978.2000122070312	247.9921417236328	-676.3468017578125	961.3946533203125	235.97412109375	-666.2635498046875	479.4315795898438	285.7791748046875	-652.790771484375	610.787109375	241.7308807373047	-686.0173950195312	49.45708465576172	123.5222549438477	-662.7406616210938	256.1067810058594	200.0300140380859	-748.8013305664062	67.40055847167969	328.9956970214844	-780.4478759765625	57.94717025756836	251.8212738037109	-674.576416015625	49.44417953491211	249.3361053466797	-740.3204345703125	48.58388519287109	82.95102691650391	-972.7713012695312	478.4571838378906	182.3313293457031	-993.6856079101562	744.6904296875	206.7326049804688	-928.9201049804688	54.36841201782227	145.4821624755859	-956.8762817382812	351.994384765625	196.3549499511719	-881.099853515625	38.58137512207031	331.3695983886719	-943.8319091796875	44.92925643920898	227.322509765625	-842.905029296875	46.19379425048828	257.9460754394531	-871.0250854492188	44.11984634399414	77.47437286376953	
551	5.5	-873.6106567382812	981.4617919921875	33.98542022705078	-742.5118408203125	961.868896484375	32.84907150268555	-809.7257080078125	1055.622802734375	31.94879722595215	-812.1296997070312	1214.839111328125	270.4263000488281	-804.9452514648438	1159.164916992188	21.44335556030273	-797.24365234375	1408.256958007812	59.84002304077148	-808.1740112304688	1333.518432617188	216.4222106933594	-866.4612426757812	1263.112060546875	15.08516311645508	-695.6995849609375	1372.102416992188	47.02662658691406	-646.9580688476562	1389.319580078125	134.7117462158203	-581.22265625	1273.966674804688	99.94625854492188	-554.936279296875	1078.261596679688	92.58781433105469	-624.8171997070312	1059.412963867188	46.21234512329102	-578.4613647460938	854.2946166992188	166.4560852050781	-525.5208740234375	849.4260864257812	102.6195373535156	-542.4064331054688	973.880615234375	94.65581512451172	-578.7058715820312	675.126220703125	138.5160217285156	-533.978515625	761.6943359375	106.8161773681641	-558.0250244140625	755.1869506835938	165.2064514160156	-954.2329711914062	1395.100708007812	109.7707595825195	-1015.467651367188	1333.855346679688	95.75691986083984	-1098.38427734375	1084.435302734375	124.9836120605469	-1007.902893066406	1055.9638671875	129.0237884521484	-1144.096069335938	962.6033935546875	334.4989318847656	-1194.599975585938	936.8604125976562	287.2443237304688	-1130.586303710938	1038.956787109375	166.0452575683594	-1202.709838867188	825.5302124023438	422.5335388183594	-1198.296508789062	892.8351440429688	396.7395324707031	-1222.568481445312	869.32177734375	336.1518249511719	-894.4295654296875	1591.66455078125	102.6785888671875	-737.5772705078125	1607.61376953125	221.6110076904297	-858.1414794921875	1613.070434570312	229.8916778564453	-738.8685302734375	1580.755615234375	75.08950042724609	-630.6826782226562	956.5213012695312	124.7101745605469	-989.4825439453125	968.8436889648438	116.6964645385742	-937.3914184570312	977.9070434570312	250.9075927734375	-676.470703125	961.4129638671875	238.5072784423828	-666.989990234375	478.4417419433594	285.4691772460938	-653.1151733398438	610.246337890625	242.0720977783203	-688.3362426757812	47.08537292480469	130.0300445556641	-664.4376220703125	253.9040222167969	203.2996215820312	-750.084716796875	65.00837707519531	336.4590148925781	-782.32177734375	55.41662216186523	259.145263671875	-676.337646484375	48.1883659362793	256.0345153808594	-743.058349609375	45.22603607177734	89.88479614257812	-972.7254638671875	478.2515258789062	183.7529602050781	-993.8958740234375	744.4310302734375	209.0726318359375	-928.8987426757812	54.4508056640625	145.4466552734375	-956.8009033203125	351.7859802246094	197.3195495605469	-881.0752563476562	38.54406356811523	331.4161071777344	-943.83154296875	45.00921630859375	227.2897186279297	-842.7144775390625	45.98570251464844	258.0137329101562	-870.8184204101562	44.11127471923828	77.54911041259766	
552	5.51	-873.7653198242188	981.3370361328125	36.75054550170898	-742.661865234375	961.8623657226562	35.38835906982422	-810.0299682617188	1055.4833984375	34.54833221435547	-812.3657836914062	1214.6845703125	272.9899597167969	-805.4956665039062	1159.044311523438	23.97467994689941	-798.042236328125	1408.18505859375	62.37582015991211	-808.524169921875	1333.372436523438	218.9914245605469	-867.3519287109375	1263.041137695312	17.80211067199707	-696.497802734375	1372.02197265625	49.23765563964844	-647.5901489257812	1389.240234375	136.8313293457031	-581.8253784179688	1273.788452148438	102.2679672241211	-555.09326171875	1078.127685546875	95.71952819824219	-624.9678955078125	1058.915283203125	49.50371170043945	-578.0701904296875	854.4796142578125	170.7827911376953	-525.12548828125	849.4210205078125	106.8910064697266	-542.3853149414062	973.7560424804688	98.356689453125	-577.8955078125	675.1890258789062	143.8437957763672	-533.4556884765625	761.7027587890625	111.6147689819336	-557.3229370117188	755.4296875	170.0639190673828	-954.8700561523438	1395.038208007812	112.7944869995117	-1016.164489746094	1333.824340820312	99.03679656982422	-1099.536865234375	1084.675659179688	128.9642639160156	-1009.309692382812	1055.953247070312	132.5601959228516	-1144.615234375	964.8870849609375	339.6171569824219	-1195.45751953125	938.8031616210938	292.9758605957031	-1131.691040039062	1039.594482421875	170.3905487060547	-1202.605224609375	828.6982421875	429.4500122070312	-1198.41064453125	895.7627563476562	402.9275817871094	-1223.138305664062	871.6953125	342.7648315429688	-895.3148803710938	1591.554565429688	105.8415832519531	-738.1643676757812	1607.499755859375	224.3220062255859	-858.7261352539062	1612.751831054688	232.9840698242188	-739.8644409179688	1580.960571289062	77.76874542236328	-631.0743408203125	956.5221557617188	127.0920333862305	-989.5817260742188	968.6151123046875	119.5172424316406	-937.579345703125	977.66357421875	253.8052673339844	-676.4894409179688	961.3569946289062	241.0294036865234	-667.6236572265625	477.4405517578125	284.9950256347656	-653.4093017578125	609.6490478515625	242.3018493652344	-690.3969116210938	45.51086044311523	135.1776123046875	-666.06884765625	251.9560241699219	205.8975067138672	-751.2509155273438	61.91920852661133	342.7658386230469	-783.9825439453125	52.79006958007812	265.1756896972656	-677.9456176757812	47.04638290405273	261.4095458984375	-745.5873413085938	42.71831512451172	95.45846557617188	-972.6209106445312	478.0634765625	185.2235107421875	-994.06982421875	744.1848754882812	211.4120025634766	-928.8753662109375	54.54362106323242	145.4118347167969	-956.6699829101562	351.585693359375	198.3330535888672	-881.0660400390625	38.51377105712891	331.4587707519531	-943.8197631835938	45.07889175415039	227.2607269287109	-842.579345703125	45.82501220703125	258.0633850097656	-870.6005249023438	44.10600280761719	77.62910461425781	
553	5.52	-873.8580322265625	981.20849609375	39.4952507019043	-742.740966796875	961.82275390625	37.89721298217773	-810.2240600585938	1055.3173828125	37.15524673461914	-812.5291137695312	1214.509033203125	275.4863586425781	-805.9285278320312	1158.889892578125	26.45524787902832	-798.7398071289062	1408.094116210938	64.84243011474609	-808.8196411132812	1333.202880859375	221.4967498779297	-868.083740234375	1262.936157226562	20.43209266662598	-697.1736450195312	1371.92724609375	51.40264892578125	-648.1432495117188	1389.132202148438	138.9142456054688	-582.3182983398438	1273.5791015625	104.6082000732422	-555.1548461914062	1077.953369140625	98.94521331787109	-624.98388671875	1058.368530273438	52.88068389892578	-577.5874633789062	854.7022705078125	175.3399963378906	-524.643310546875	849.4038696289062	111.3833923339844	-542.2625732421875	973.6026000976562	102.2022171020508	-576.8973388671875	675.2803344726562	149.5690765380859	-532.830078125	761.7097778320312	116.7071228027344	-556.528076171875	755.7123413085938	175.2250213623047	-955.4201049804688	1394.909057617188	115.6964340209961	-1016.743041992188	1333.714111328125	102.1579132080078	-1100.568969726562	1084.809448242188	132.6646118164062	-1010.486999511719	1055.840698242188	135.8274230957031	-1144.885620117188	966.82958984375	344.3316040039062	-1196.08056640625	940.4594116210938	298.3126525878906	-1132.648559570312	1040.0859375	174.4339752197266	-1202.125732421875	831.3975219726562	435.8064575195312	-1198.189086914062	898.2505493164062	408.6469421386719	-1223.409545898438	873.6950073242188	348.8731689453125	-896.1324462890625	1591.42138671875	108.8843612670898	-738.6980590820312	1607.384033203125	226.9378356933594	-859.257080078125	1612.427856445312	235.9659118652344	-740.7565307617188	1581.147094726562	80.36054229736328	-631.34912109375	956.4711303710938	129.4449615478516	-989.5756225585938	968.3973388671875	122.3484878540039	-937.6771240234375	977.4605102539062	256.696044921875	-676.3914184570312	961.2491455078125	243.5226745605469	-668.18115234375	476.4714050292969	284.4070434570312	-653.6635131835938	609.0499877929688	242.4552917480469	-692.158203125	44.65538024902344	138.9572601318359	-667.6202392578125	250.3007049560547	207.8051910400391	-752.2427368164062	58.37480163574219	347.846435546875	-785.3839721679688	50.19033050537109	269.8695983886719	-679.3614501953125	46.05537414550781	265.4435729980469	-747.83935546875	40.99727630615234	99.63573455810547	-972.458740234375	477.8970642089844	186.7158508300781	-994.1832275390625	743.9533081054688	213.7590026855469	-928.8474731445312	54.64314651489258	145.3799285888672	-956.4845581054688	351.4010620117188	199.3752593994141	-881.073486328125	38.49518203735352	331.4957275390625	-943.7965698242188	45.13804626464844	227.2388305664062	-842.507568359375	45.72637939453125	258.0961608886719	-870.3890380859375	44.10926818847656	77.70415496826172	
